<svg width="18" height="19" viewBox="0 0 18 19" fill="none" xmlns="http://www.w3.org/2000/svg">
<path d="M16.177 3.0244H14.5191V2.39808C14.5191 1.44019 13.7454 0.666504 12.7876 0.666504C11.8297 0.666504 11.056 1.44019 11.056 2.39808V3.0244H7.46387V2.39808C7.46387 1.44019 6.69019 0.666504 5.73229 0.666504C4.7744 0.666504 4.00071 1.44019 4.00071 2.39808V3.0244H2.34282C1.42177 3.0244 0.666504 3.77966 0.666504 4.70071V16.4902C0.666504 17.4112 1.42177 18.1665 2.34282 18.1665H16.177C17.0981 18.1665 17.8533 17.4112 17.8533 16.4902V4.70071C17.8533 3.77966 17.1165 3.0244 16.177 3.0244ZM11.977 2.39808C11.977 1.95598 12.3454 1.58756 12.7876 1.58756C13.2297 1.58756 13.5981 1.95598 13.5981 2.39808V4.57177C13.5981 5.01387 13.2297 5.38229 12.7876 5.38229C12.3454 5.38229 11.977 5.01387 11.977 4.57177V2.39808ZM4.94019 2.39808C4.94019 1.95598 5.30861 1.58756 5.75071 1.58756C6.19282 1.58756 6.56124 1.95598 6.56124 2.39808V4.57177C6.56124 5.01387 6.19282 5.38229 5.75071 5.38229C5.30861 5.38229 4.94019 5.01387 4.94019 4.57177V2.39808ZM2.36124 3.92703H4.01913V4.55335C4.01913 5.51124 4.79282 6.28492 5.75071 6.28492C6.70861 6.28492 7.48229 5.51124 7.48229 4.55335V3.92703H11.0744V4.55335C11.0744 5.51124 11.8481 6.28492 12.806 6.28492C13.7639 6.28492 14.5376 5.51124 14.5376 4.55335V3.92703H16.1954C16.6191 3.92703 16.9507 4.27703 16.9507 4.68229V7.46387H1.58756V4.70071C1.58756 4.27703 1.93756 3.92703 2.36124 3.92703ZM16.177 17.2455H2.36124C1.93756 17.2455 1.60598 16.8955 1.60598 16.4902V8.38493H16.9507V16.4902C16.9507 16.9139 16.6007 17.2455 16.177 17.2455Z" fill="#A1A1A1"/>
<path d="M5.82464 9.9873H3.83517C3.5957 9.9873 3.39307 10.1899 3.39307 10.4294V11.7005C3.39307 11.9399 3.5957 12.1426 3.83517 12.1426H5.82464C6.06412 12.1426 6.26675 11.9399 6.26675 11.7005V10.4294C6.26675 10.1899 6.06412 9.9873 5.82464 9.9873Z" fill="#A1A1A1"/>
<path d="M14.7036 9.9873H12.7141C12.4746 9.9873 12.272 10.1899 12.272 10.4294V11.7005C12.272 11.9399 12.4746 12.1426 12.7141 12.1426H14.7036C14.943 12.1426 15.1457 11.9399 15.1457 11.7005V10.4294C15.1641 10.1899 14.9614 9.9873 14.7036 9.9873Z" fill="#A1A1A1"/>
<path d="M10.2636 9.9873H8.27414C8.03466 9.9873 7.83203 10.1899 7.83203 10.4294V11.7005C7.83203 11.9399 8.03466 12.1426 8.27414 12.1426H10.2636C10.5031 12.1426 10.7057 11.9399 10.7057 11.7005V10.4294C10.7057 10.1899 10.5215 9.9873 10.2636 9.9873Z" fill="#A1A1A1"/>
<path d="M5.82464 13.5249H3.83517C3.5957 13.5249 3.39307 13.7275 3.39307 13.967V15.2381C3.39307 15.4775 3.5957 15.6802 3.83517 15.6802H5.82464C6.06412 15.6802 6.26675 15.4775 6.26675 15.2381V13.967C6.26675 13.7275 6.06412 13.5249 5.82464 13.5249Z" fill="#A1A1A1"/>
<path d="M14.7036 13.5249H12.7141C12.4746 13.5249 12.272 13.7275 12.272 13.967V15.2381C12.272 15.4775 12.4746 15.6802 12.7141 15.6802H14.7036C14.943 15.6802 15.1457 15.4775 15.1457 15.2381V13.967C15.1641 13.7275 14.9614 13.5249 14.7036 13.5249Z" fill="#A1A1A1"/>
<path d="M10.2636 13.5249H8.27414C8.03466 13.5249 7.83203 13.7275 7.83203 13.967V15.2381C7.83203 15.4775 8.03466 15.6802 8.27414 15.6802H10.2636C10.5031 15.6802 10.7057 15.4775 10.7057 15.2381V13.967C10.7057 13.7275 10.5215 13.5249 10.2636 13.5249Z" fill="#A1A1A1"/>
</svg>
